<svg width="159" height="88" viewBox="0 0 159 88" fill="none" xmlns="http://www.w3.org/2000/svg">
<path d="M56.5809 54.7025L108.328 27.8003L155.215 30.2088L114.163 63.8903L56.5809 54.7025Z" fill="#854141"/>
<path d="M0 38.7614L55.1691 17.5106L102.188 28.0093L56.5809 54.7025L0 38.7614Z" fill="#854141"/>
<path d="M115.456 56.3354L153.686 29.3924L153.686 30.2089L113.926 61.2341L115.456 56.3354Z" fill="#C4C4C4"/>
<path d="M62.6978 48.4347L110.868 22.3081L153.686 29.3924L115.456 57.1519L62.6978 48.4347Z" fill="#D2D1D1"/>
<path d="M62.6961 48.1771C71.9468 43.0271 94.2701 53.523 115.454 57.1617L113.926 61.2388L62.6978 53.0701C62.6978 53.0701 53.4454 53.327 62.6961 48.1771Z" fill="#E4E0E0"/>
<path d="M59.814 51.0777L61.9331 50.6202C58.7301 54.1321 58.7603 59.9298 55.8165 70.2152L56.5811 60.4177L54.2873 61.2342L59.814 51.0777Z" fill="#AC4E4E"/>
<path d="M104.239 31C112.841 34.9037 118.919 34.875 129.314 35.6091" stroke="#686565"/>
<path d="M101.216 36C104.578 37.6088 110.689 39.8725 118.316 39.549" stroke="#686565"/>
</svg>
