<svg width="287" height="581" viewBox="0 0 287 581" fill="none" xmlns="http://www.w3.org/2000/svg">
<rect width="287" height="581" fill="#604130"/>
<rect x="16" y="14" width="255" height="567" fill="#7E5741"/>
<path d="M118 53.9072L123 46.5L125 135L118 125V53.9072Z" fill="#604130" fill-opacity="0.5"/>
<path d="M118 125L125 135L35.4038 134.877L43.3881 124.442L118 125Z" fill="#6C4935" fill-opacity="0.5"/>
<path d="M42.9476 53.973L38.5 48L123 46.5L118 54L42.9476 53.973Z" fill="#8F654E" fill-opacity="0.5"/>
<path d="M43.6538 124.335L35.4038 134.738L38.5 48L43 54L43.6538 124.335Z" fill="#A37256" fill-opacity="0.5"/>
<path d="M118 194.907L123 187.5L125 276L118 266V194.907Z" fill="#604130" fill-opacity="0.5"/>
<path d="M118 266L125 276L35.4038 275.877L43.3881 265.442L118 266Z" fill="#6C4935" fill-opacity="0.5"/>
<path d="M42.9476 194.973L38.5 189L123 187.5L118 195L42.9476 194.973Z" fill="#8F654E" fill-opacity="0.5"/>
<path d="M43.6538 265.335L35.4038 275.738L38.5 189L43 195L43.6538 265.335Z" fill="#A37256" fill-opacity="0.5"/>
<path d="M118 335.907L123 328.5L125 417L118 407V335.907Z" fill="#604130" fill-opacity="0.5"/>
<path d="M118 407L125 417L35.4038 416.877L43.3881 406.442L118 407Z" fill="#6C4935" fill-opacity="0.5"/>
<path d="M42.9476 335.973L38.5 330L123 328.5L118 336L42.9476 335.973Z" fill="#8F654E" fill-opacity="0.5"/>
<path d="M43.6538 406.335L35.4038 416.738L38.5 330L43 336L43.6538 406.335Z" fill="#A37256" fill-opacity="0.5"/>
<path d="M118 476.907L123 469.5L125 558L118 548V476.907Z" fill="#604130" fill-opacity="0.5"/>
<path d="M118 548L125 558L35.4038 557.877L43.3881 547.442L118 548Z" fill="#6C4935" fill-opacity="0.5"/>
<path d="M42.9476 476.973L38.5 471L123 469.5L118 477L42.9476 476.973Z" fill="#8F654E" fill-opacity="0.5"/>
<path d="M43.6538 547.335L35.4038 557.738L38.5 471L43 477L43.6538 547.335Z" fill="#A37256" fill-opacity="0.5"/>
<path d="M245 53.9072L250 46.5L252 135L245 125V53.9072Z" fill="#604130" fill-opacity="0.5"/>
<path d="M245 125L252 135L162.404 134.877L170.388 124.442L245 125Z" fill="#6C4935" fill-opacity="0.5"/>
<path d="M169.948 53.973L165.5 48L250 46.5L245 54L169.948 53.973Z" fill="#8F654E" fill-opacity="0.5"/>
<path d="M170.654 124.335L162.404 134.738L165.5 48L170 54L170.654 124.335Z" fill="#A37256" fill-opacity="0.5"/>
<path d="M245 194.907L250 187.5L252 276L245 266V194.907Z" fill="#604130" fill-opacity="0.5"/>
<path d="M245 266L252 276L162.404 275.877L170.388 265.442L245 266Z" fill="#6C4935" fill-opacity="0.5"/>
<path d="M169.948 194.973L165.5 189L250 187.5L245 195L169.948 194.973Z" fill="#8F654E" fill-opacity="0.5"/>
<path d="M170.654 265.335L162.404 275.738L165.5 189L170 195L170.654 265.335Z" fill="#A37256" fill-opacity="0.5"/>
<path d="M245 335.907L250 328.5L252 417L245 407V335.907Z" fill="#604130" fill-opacity="0.5"/>
<path d="M245 407L252 417L162.404 416.877L170.388 406.442L245 407Z" fill="#6C4935" fill-opacity="0.5"/>
<path d="M169.948 335.973L165.5 330L250 328.5L245 336L169.948 335.973Z" fill="#8F654E" fill-opacity="0.5"/>
<path d="M170.654 406.335L162.404 416.738L165.5 330L170 336L170.654 406.335Z" fill="#A37256" fill-opacity="0.5"/>
<path d="M245 476.907L250 469.5L252 558L245 548V476.907Z" fill="#604130" fill-opacity="0.5"/>
<path d="M245 548L252 558L162.404 557.877L170.388 547.442L245 548Z" fill="#6C4935" fill-opacity="0.5"/>
<path d="M169.948 476.973L165.5 471L250 469.5L245 477L169.948 476.973Z" fill="#8F654E" fill-opacity="0.5"/>
<path d="M170.654 547.335L162.404 557.738L165.5 471L170 477L170.654 547.335Z" fill="#A37256" fill-opacity="0.5"/>
<path d="M233 292.5C233 285.596 238.596 280 245.5 280V280C252.404 280 258 285.596 258 292.5V306.5C258 313.404 252.404 319 245.5 319V319C238.596 319 233 313.404 233 306.5V292.5Z" fill="#604130"/>
<ellipse cx="245.5" cy="311" rx="5.5" ry="6" fill="#C4C4C4"/>
<path d="M247 308.5C247 309.328 246.328 310 245.5 310C244.672 310 244 309.328 244 308.5C244 307.672 244.672 307 245.5 307C246.328 307 247 307.672 247 308.5Z" fill="#332828"/>
<path d="M245.083 309H246.125L248 314H243L245.083 309Z" fill="#332828"/>
<circle cx="245" cy="292" r="8" fill="#686565"/>
<path d="M245 286.045C245 286.045 244.758 285.806 242.823 286.431C238.566 287.805 239.013 292.614 239.013 292.614V293C239.013 293 240.5 292.5 242.007 289.522C243.513 286.545 243.831 287.403 245 286.045Z" fill="white"/>
<path d="M16 580.5L271 579V581H16V580.5Z" fill="#C4C4C4"/>
</svg>
