<svg width="325" height="621" viewBox="0 0 325 621" fill="none" xmlns="http://www.w3.org/2000/svg">
<rect width="287" height="581" fill="#604130"/>
<rect x="19" y="13" width="254" height="568" fill="#F1F1F1"/>
<path d="M266.795 338.935C254.089 368.293 248.296 358.491 246.027 358.288C243.758 358.085 257.934 333.401 258.507 327.009C259.08 320.617 262.338 322.18 264.608 322.384C273.795 323.207 268.66 321.8 266.795 338.935Z" fill="#67A865"/>
<path d="M297.5 305C271.721 331.849 273.599 326.349 264.099 326.349C250.947 319.313 256.23 305 249.873 279.523C252.099 249.349 254.721 237.349 291.888 242.735C305.04 249.77 335.089 260.198 297.5 305Z" fill="#76C974"/>
<path d="M304.5 276.5C304.5 280.642 295.314 289.144 292 289.144C288.686 289.144 286 285.786 286 281.644C286 277.502 288.686 274.144 292 274.144C295.314 274.144 304.5 272.358 304.5 276.5Z" fill="#222222"/>
<path d="M275.507 273.917C275.845 278.045 273.443 281.612 270.14 281.883C266.838 282.154 262.366 279.536 262.027 275.408C261.688 271.28 260.244 264.179 263.547 263.908C266.849 263.637 275.168 269.789 275.507 273.917Z" fill="#222222"/>
<path d="M278.662 292.059C278.716 291.497 279.25 291.11 279.801 291.234V291.234C280.305 291.348 280.622 291.85 280.508 292.354L279.069 298.721C279.004 299.007 278.716 299.184 278.431 299.111V299.111C278.183 299.047 278.018 298.812 278.042 298.557L278.662 292.059Z" fill="#222222"/>
<path d="M276.21 310.662C275.687 313.373 273.724 315.274 271.826 314.908C269.928 314.541 268.814 312.046 269.337 309.335C269.861 306.624 270.474 303.444 273.721 305.089C276.5 305 277.158 305.752 276.21 310.662Z" fill="#222222"/>
<path d="M273.243 290.384C273.385 289.896 273.896 289.615 274.384 289.756V289.756C274.928 289.914 275.201 290.521 274.959 291.034L272.044 297.201C271.942 297.417 271.666 297.484 271.476 297.339V297.339C271.352 297.245 271.299 297.084 271.342 296.935L273.243 290.384Z" fill="#222222"/>
<path d="M287.16 358.005C279.589 365.919 283.362 363.386 266.82 356.166C264.232 355.778 262.104 365.554 269.774 364.493C273.953 363.915 278.633 368.712 287.848 361.323C289.381 362.669 291.461 362.46 290.8 359.269C290.139 356.078 289.054 357.058 287.16 358.005Z" fill="#76C974" stroke="#76C974"/>
<path d="M290.149 370.939C289.04 372.647 273.268 370.978 267.664 363.2C265.076 362.812 261.549 365.633 267.896 369.641C274.243 373.65 285.758 373.889 290.076 373.549C291.608 374.895 295.245 374.784 295.394 372.26C295.664 367.71 292.042 369.991 290.149 370.939Z" fill="#76C974" stroke="#76C974"/>
<path d="M293.283 378.651C292.186 380.415 285.843 380.617 269.22 373.005C266.625 372.583 261.966 372.694 268.354 376.898C274.743 381.103 286.049 381.611 290.371 381.291C291.916 382.698 296.384 384.777 296.043 380.115C295.875 377.826 295.172 377.684 293.283 378.651Z" fill="#76C974" stroke="#76C974"/>
<path d="M284.131 386.777C283.674 388.522 274.696 389.714 269.186 379.033C267.37 377.679 266.092 379.011 270.235 384.09C274.377 389.17 280.371 390.65 282.85 390.755C283.892 392.394 286.091 394.537 286.552 389.987C287.013 385.437 285.13 385.951 284.131 386.777Z" fill="#76C974" stroke="#76C974"/>
<path d="M258.484 360.649C258.894 357.889 261.588 353.357 269.086 357.305C269.37 358.678 269.458 361.469 267.529 361.639C265.6 361.81 267.181 363.909 268.212 364.937C269.753 366.05 275.002 370.5 270.768 370.919C266.533 371.339 268.766 373.133 270.149 374.279L267.381 375.139C266.16 374.934 268.803 377.681 269.459 379.265L272.716 386.664C266.677 385.032 264.992 384.461 263.212 383.454C261.431 382.448 261.445 378.089 261.674 376.036L258.484 360.649Z" fill="#76C974"/>
<path d="M267.381 375.139C266.16 374.934 268.803 377.681 269.459 379.265L272.716 386.664C266.677 385.032 264.992 384.461 263.212 383.454C261.431 382.448 261.445 378.089 261.674 376.036L258.484 360.649C258.894 357.889 261.588 353.357 269.086 357.305C269.37 358.678 269.458 361.469 267.529 361.639C265.6 361.81 267.181 363.909 268.212 364.937C269.753 366.05 275.002 370.5 270.768 370.919C266.533 371.339 268.766 373.133 270.149 374.279L267.381 375.139ZM267.381 375.139C268.602 375.344 268.845 375.886 267.381 375.139Z" stroke="#76C974"/>
<path d="M288.056 202.597C279.773 208.403 283.637 206.801 270.111 197.056C267.856 196.21 264.121 204.752 271.215 205.236C275.08 205.5 278.393 210.778 288.056 205.764C289.183 207.287 291.093 207.49 291.093 204.444C291.093 201.399 289.934 202.09 288.056 202.597Z" fill="#76C974" stroke="#76C974"/>
<path d="M288.332 215C287.017 216.353 273.147 211.833 269.558 203.653C267.304 202.807 263.607 204.719 268.566 209.591C273.526 214.464 283.834 216.867 287.78 217.375C288.907 218.898 292.197 219.486 292.802 217.204C293.892 213.092 290.211 214.492 288.332 215Z" fill="#76C974" stroke="#76C974"/>
<path d="M289.712 222.653C288.397 224.058 282.657 223.04 269.13 212.92C266.876 212.042 262.666 211.26 267.626 216.319C272.586 221.379 282.657 223.989 286.602 224.516C287.729 226.097 291.359 228.847 291.921 224.516C292.197 222.389 291.591 222.126 289.712 222.653Z" fill="#76C974" stroke="#76C974"/>
<path d="M279.97 228.353C279.233 229.862 270.939 229.25 267.976 218.431C266.595 216.847 265.198 217.823 267.976 223.258C270.753 228.692 275.867 231.183 278.076 231.749C278.707 233.448 280.285 235.825 281.548 231.749C282.81 227.673 281.022 227.787 279.97 228.353Z" fill="#76C974" stroke="#76C974"/>
<path d="M261.78 199.576C262.663 197.129 265.931 193.492 271.935 198.527C271.935 199.838 271.494 202.409 269.728 202.199C267.962 201.989 268.992 204.209 269.728 205.346C270.905 206.657 274.796 211.725 270.91 211.306C267.025 210.886 268.698 212.951 269.728 214.262L267.079 214.525C266.019 214.105 267.884 217.121 268.178 218.694L269.728 226.083C264.602 223.444 263.193 222.602 261.78 221.343C260.367 220.084 261.191 216.098 261.78 214.262V199.576Z" fill="#76C974"/>
<path d="M267.079 214.525C266.019 214.105 267.884 217.121 268.178 218.694L269.728 226.083C264.602 223.444 263.193 222.602 261.78 221.343C260.367 220.084 261.191 216.098 261.78 214.262V199.576C262.663 197.129 265.931 193.492 271.935 198.527C271.935 199.838 271.494 202.409 269.728 202.199C267.962 201.989 268.992 204.209 269.728 205.346C270.905 206.657 274.796 211.725 270.91 211.306C267.025 210.886 268.698 212.951 269.728 214.262L267.079 214.525ZM267.079 214.525C268.138 214.944 268.256 215.486 267.079 214.525Z" stroke="#76C974"/>
<path d="M19 13L262 34.5V621L19 580.934V13Z" fill="#7E5741"/>
<path d="M114.108 66.7656L118.667 59.3937L118.928 147.549L112.893 137.579L114.108 66.7656Z" fill="#604130" fill-opacity="0.5"/>
<path d="M113.111 136.687L117.7 147.295L44.5262 138.12L52.2262 128.596L113.111 136.687Z" fill="#6C4935" fill-opacity="0.5"/>
<path d="M49.1738 59.0246L43.4637 52.6064L119.396 60.2604L114.152 67.1417L49.1738 59.0246Z" fill="#8F654E" fill-opacity="0.5"/>
<path d="M47.7034 129.254L42.292 138.328L43.4637 52.6065L49.1736 59.0246L47.7034 129.254Z" fill="#A37256" fill-opacity="0.5"/>
<path d="M228.616 78.9896L233.176 71.6178L233.437 159.773L227.402 149.803L228.616 78.9896Z" fill="#604130" fill-opacity="0.5"/>
<path d="M227.62 148.911L232.209 159.519L159.035 150.344L166.735 140.82L227.62 148.911Z" fill="#6C4935" fill-opacity="0.5"/>
<path d="M163.683 71.2487L157.972 64.8305L233.905 72.4845L228.661 79.3658L163.683 71.2487Z" fill="#8F654E" fill-opacity="0.5"/>
<path d="M162.212 141.478L156.801 150.552L157.972 64.8305L163.682 71.2487L162.212 141.478Z" fill="#A37256" fill-opacity="0.5"/>
<path d="M113.616 196.99L118.176 189.618L118.437 277.773L112.402 267.803L113.616 196.99Z" fill="#604130" fill-opacity="0.5"/>
<path d="M112.62 266.911L117.209 277.519L44.0349 268.344L51.7349 258.82L112.62 266.911Z" fill="#6C4935" fill-opacity="0.5"/>
<path d="M48.6824 189.249L42.9723 182.831L118.905 190.485L113.661 197.366L48.6824 189.249Z" fill="#8F654E" fill-opacity="0.5"/>
<path d="M47.212 259.478L41.8006 268.552L42.9723 182.831L48.6823 189.249L47.212 259.478Z" fill="#A37256" fill-opacity="0.5"/>
<path d="M227.616 209.99L232.176 202.618L232.437 290.773L226.402 280.803L227.616 209.99Z" fill="#604130" fill-opacity="0.5"/>
<path d="M226.62 279.911L231.209 290.519L158.035 281.344L165.735 271.82L226.62 279.911Z" fill="#6C4935" fill-opacity="0.5"/>
<path d="M162.682 202.249L156.972 195.831L232.905 203.485L227.661 210.366L162.682 202.249Z" fill="#8F654E" fill-opacity="0.5"/>
<path d="M161.212 272.478L155.801 281.552L156.972 195.831L162.682 202.249L161.212 272.478Z" fill="#A37256" fill-opacity="0.5"/>
<path d="M117.616 365.99L122.176 358.618L122.437 446.773L116.402 436.803L117.616 365.99Z" fill="#604130" fill-opacity="0.5"/>
<path d="M116.62 435.911L121.209 446.519L48.0349 437.344L55.7349 427.82L116.62 435.911Z" fill="#6C4935" fill-opacity="0.5"/>
<path d="M52.6824 358.249L46.9723 351.831L122.905 359.485L117.661 366.366L52.6824 358.249Z" fill="#8F654E" fill-opacity="0.5"/>
<path d="M51.212 428.478L45.8006 437.552L46.9723 351.831L52.6823 358.249L51.212 428.478Z" fill="#A37256" fill-opacity="0.5"/>
<path d="M227.616 384.99L232.176 377.618L232.437 465.773L226.402 455.803L227.616 384.99Z" fill="#604130" fill-opacity="0.5"/>
<path d="M226.62 454.911L231.209 465.519L158.035 456.344L165.735 446.82L226.62 454.911Z" fill="#6C4935" fill-opacity="0.5"/>
<path d="M162.682 377.249L156.972 370.831L232.905 378.485L227.661 385.366L162.682 377.249Z" fill="#8F654E" fill-opacity="0.5"/>
<path d="M161.212 447.478L155.801 456.552L156.972 370.831L162.682 377.249L161.212 447.478Z" fill="#A37256" fill-opacity="0.5"/>
<path d="M117.616 475.99L122.176 468.618L122.437 556.773L116.402 546.803L117.616 475.99Z" fill="#604130" fill-opacity="0.5"/>
<path d="M116.62 545.911L121.209 556.519L48.0349 547.344L55.7349 537.82L116.62 545.911Z" fill="#6C4935" fill-opacity="0.5"/>
<path d="M52.6824 468.249L46.9723 461.831L122.905 469.485L117.661 476.366L52.6824 468.249Z" fill="#8F654E" fill-opacity="0.5"/>
<path d="M51.212 538.478L45.8006 547.552L46.9723 461.831L52.6823 468.249L51.212 538.478Z" fill="#A37256" fill-opacity="0.5"/>
<path d="M222.616 499.99L227.176 492.618L227.437 580.773L221.402 570.803L222.616 499.99Z" fill="#604130" fill-opacity="0.5"/>
<path d="M221.62 569.911L226.209 580.519L153.035 571.344L160.735 561.82L221.62 569.911Z" fill="#6C4935" fill-opacity="0.5"/>
<path d="M157.682 492.249L151.972 485.831L227.905 493.485L222.661 500.366L157.682 492.249Z" fill="#8F654E" fill-opacity="0.5"/>
<path d="M156.212 562.478L150.801 571.552L151.972 485.831L157.682 492.249L156.212 562.478Z" fill="#A37256" fill-opacity="0.5"/>
<path d="M216.115 322.724C216.052 317.598 220.155 313.343 225.28 313.221C230.405 313.099 234.612 317.156 234.676 322.282L234.926 342.455C234.99 347.582 230.887 351.836 225.762 351.959C220.637 352.081 216.43 348.024 216.366 342.898L216.115 322.724Z" fill="#604130"/>
<ellipse rx="4.08439" ry="5.96007" transform="matrix(0.999735 -0.0230192 0.0128629 0.999917 225.676 344.02)" fill="#C4C4C4"/>
<path d="M226.758 341.511C226.769 342.334 226.279 343.012 225.664 343.026C225.049 343.04 224.541 342.385 224.531 341.562C224.52 340.739 225.01 340.061 225.625 340.047C226.24 340.032 226.747 340.688 226.758 341.511Z" fill="#332828"/>
<path d="M225.342 342.04L226.115 342.022L227.571 346.957L223.859 347.042L225.342 342.04Z" fill="#332828"/>
<ellipse rx="5.94094" ry="7.94676" transform="matrix(0.999735 -0.0230192 0.0128629 0.999917 225.062 325.156)" fill="#686565"/>
<path d="M224.986 319.241C224.986 319.241 224.804 319.008 223.375 319.662C220.232 321.099 220.626 325.868 220.626 325.868L220.631 326.252C220.631 326.252 221.728 325.73 222.809 322.746C223.889 319.763 224.136 320.61 224.986 319.241Z" fill="white"/>
</svg>
