<svg width="190" height="422" viewBox="0 0 190 422" fill="none" xmlns="http://www.w3.org/2000/svg">
<ellipse cx="94.3006" cy="405.263" rx="14.7545" ry="16.737" fill="#FFEACA"/>
<path d="M100.074 403.976C100.074 405.773 100.074 407.611 100.074 409.427C100.074 409.76 100.074 409.69 100.074 409.979C100.074 410.28 100.074 410.273 100.074 410.413" stroke="#FFB774" stroke-linecap="round" stroke-linejoin="round"/>
<path d="M100.048 411.763C100.048 411.233 100.112 410.634 100.039 410.114C100.022 409.99 99.5089 409.994 99.428 410.047C98.8437 410.436 98.5716 412.284 97.6631 411.651C97.4429 411.498 97.1928 411.212 96.9142 411.25C96.455 411.314 96.3216 412.22 96.0016 412.542C95.7968 412.748 94.9394 413.011 94.7447 412.698C94.4954 412.298 94.3653 411.711 94.1937 411.25C94.0716 410.923 93.9612 410.598 93.8838 410.248C93.7381 409.588 93.571 410.105 93.3673 410.471C93.1051 410.942 92.7808 411.364 92.4547 411.763C92.1821 412.096 92.0464 411.771 91.7402 411.685C91.1099 411.507 90.7358 412.244 90.2853 412.665C90.2027 412.742 90.0063 412.996 89.8893 412.988C89.7705 412.979 89.8204 412.446 89.8204 412.364C89.8204 411.614 89.8204 410.864 89.8204 410.114C89.8204 409.19 89.9115 408.372 90.1648 407.508C90.2715 407.144 90.4403 406.953 90.4403 406.551" stroke="#FFB774" stroke-linecap="round" stroke-linejoin="round"/>
<line y1="-1" x2="249.82" y2="-1" transform="matrix(0.0198276 -0.999803 0.999801 0.0199657 96.2251 250.771)" stroke="#4B4B4B" stroke-width="2"/>
<path d="M94.942 243.043L130.283 338.315L190 408.16C152.9 408.16 145.736 382.089 95 408.16C44.2635 434.231 37.0998 407.838 0 407.838L61.642 338.315L94.942 243.043Z" fill="#D6A254"/>
<path d="M61.584 338.315L94.942 243.043L131.508 339.603L0 407.838L61.584 338.315Z" fill="#C5A372"/>
</svg>
