<svg width="125" height="140" viewBox="0 0 125 140" fill="none" xmlns="http://www.w3.org/2000/svg">
<g filter="url(#filter0_d)">
<line y1="-0.5" x2="33.9025" y2="-0.5" transform="matrix(-0.630614 -0.776097 0.699531 -0.714602 90.9936 31.7187)" stroke="black"/>
<line y1="-0.5" x2="34.5384" y2="-0.5" transform="matrix(0.89875 -0.438461 0.354851 0.934923 38.5728 20.5508)" stroke="black"/>
<rect width="99.2598" height="97.9403" transform="matrix(0.986146 0.165879 -0.1439 0.989592 15.662 15.1273)" fill="#604130"/>
<rect width="86.2995" height="86.1077" transform="matrix(0.986146 0.165879 -0.1439 0.989592 21.1878 22.2885)" fill="#F1ECEC"/>
<ellipse cx="69.1135" cy="5.65128" rx="1.45792" ry="1.36161" transform="rotate(3.25907 69.1135 5.65128)" fill="#0A0707"/>
<path d="M23.8215 57.3521C24.9576 57.4168 26.0938 57.4815 27.23 57.5462C28.4695 57.6168 29.3514 58.2811 30.5559 58.4932C31.25 58.6154 31.8602 58.5731 32.4752 59.0035C33.1931 59.5061 33.6303 60.1388 34.5547 60.1915C36.0595 60.2772 37.6555 59.623 39.1337 59.3827C40.987 59.0815 42.8759 58.9379 44.7381 58.7214C46.069 58.5667 46.4414 59.3047 47.273 60.2918C48.0047 61.1603 48.8547 61.0366 49.7016 61.6333C51.4453 62.8618 54.6253 62.3147 56.6148 62.428C57.3988 62.4727 58.3912 62.4089 59.1413 62.7501C60.0504 63.1637 59.4287 63.5986 59.2188 64.1806" stroke="black" stroke-linecap="round" stroke-linejoin="round"/>
<path d="M28.7847 47.124C31.2359 47.2636 33.7851 47.6517 36.2409 47.4594C38.1405 47.3107 40.5818 45.2246 42.4086 45.9836C43.5287 46.4489 44.1912 47.5721 44.4342 48.8172C44.7899 50.6397 46.0559 50.5139 47.5139 50.5969C49.5062 50.7103 51.1515 50.8141 53.0272 51.5347C53.9356 51.8837 55.4977 52.1079 56.4357 51.7288C57.5674 51.2715 57.5936 51.2118 58.5658 52.0283" stroke="black" stroke-linecap="round" stroke-linejoin="round"/>
<path d="M23.0457 70.9749C27.563 71.2321 32.0876 71.4251 36.6005 71.7468C39.4401 71.9492 42.2029 72.2637 44.9549 73.0692C46.7881 73.6057 48.5555 74.373 50.4252 74.7621C52.82 75.2606 55.2865 75.132 57.7077 75.3551C59.7361 75.542 60.8943 77.0072 62.565 78.0381C65.7066 79.9764 69.8053 80.6786 73.3076 81.4127C76.4419 82.0697 79.6129 82.2174 82.7944 82.3985C85.0106 82.5247 87.7602 83.2714 89.6966 81.9894" stroke="black" stroke-linecap="round" stroke-linejoin="round"/>
<path d="M29.0192 96.8923C29.3874 94.6613 30.2181 94.4446 31.877 93.49C32.7905 92.9644 30.2132 92.9497 29.9603 92.9353C29.128 92.8879 28.2957 92.8405 27.4633 92.7931C26.1938 92.7208 25.497 94.5755 26.0205 95.7858C26.8005 97.5887 31.7216 97.0462 33.2601 97.1338C34.2564 97.1906 35.256 96.8019 36.1786 96.8544C36.8779 96.8942 37.5359 97.3773 38.2936 97.4205" stroke="black" stroke-linecap="round" stroke-linejoin="round"/>
<path d="M66.83 99.0454C69.4032 99.4072 71.6262 100.961 73.7921 102.472C75.3462 103.557 75.5368 106.933 74.4786 108.572C73.1262 110.667 68.7425 106.36 68.0318 105.174C66.4781 102.584 67.7617 99.6921 69.6061 97.7775C71.3457 95.9716 71.5549 96.5477 72.7414 98.5799C73.6333 100.108 74.4412 102.687 76.279 102.792C78.6643 102.928 82.3055 103.984 84.4123 102.408C84.8632 102.071 85.6573 101.088 84.9149 100.565C84.0515 99.9571 83.0897 101.048 82.434 101.538" stroke="black" stroke-linecap="round" stroke-linejoin="round"/>
<ellipse cx="82.7457" cy="56.8888" rx="12.1493" ry="13.6161" transform="rotate(3.25907 82.7457 56.8888)" fill="#B13838"/>
<path d="M25.5457 79.0258C33.6829 79.4892 41.7237 80.0907 49.783 81.459C56.014 82.5169 62.1858 83.7924 68.3259 85.352C69.0463 85.535 70.2792 85.7985 71.0209 86.149C72.0483 86.6344 71.9022 87.1638 72.4805 88.0163" stroke="black" stroke-linecap="round" stroke-linejoin="round"/>
<path d="M19.1596 83.9271C27.3713 84.3947 35.6159 84.6168 43.7173 86.2322C49.7082 87.4268 55.5815 89.2147 61.5623 90.4657C83.8217 95.1217 49.8534 87.9287 68.1201 91.7166C68.8361 91.8651 69.555 92.0074 70.2577 92.2186C75.2324 93.7139 68.8529 91.8812 72.1816 93.2641" stroke="black" stroke-linecap="round" stroke-linejoin="round"/>
<path d="M23.9446 38.1896C24.0861 35.7052 24.8358 33.5541 26.0921 31.4776C26.5818 30.6681 27.8176 29.2355 27.7067 28.1724C27.6615 27.7386 26.7311 27.431 27.0404 27.0354C27.7526 26.1245 29.7542 26.6504 30.6256 26.7C32.948 26.8322 35.2703 26.9645 37.5927 27.0967C38.2549 27.1344 39.1294 27.0056 39.6339 27.5726C40.0427 28.0321 40.3668 28.4475 40.512 29.0614" stroke="black" stroke-linecap="round" stroke-linejoin="round"/>
<path d="M89.6654 36.7182C91.7804 36.8387 93.8816 36.9129 95.939 37.515C96.9974 37.8248 97.9178 38.4663 98.9593 38.8103C100.004 39.1554 101.125 39.129 102.206 39.1906C103.692 39.2752 102.46 40.8001 102.15 41.7026C101.643 43.1814 101.481 44.773 101.061 46.2804C100.703 47.5669 100.22 48.7606 99.8882 50.0476" stroke="black" stroke-linecap="round" stroke-linejoin="round"/>
<path d="M93.2992 108.271C93.0203 110.484 91.5563 111.878 91.1417 113.996C90.9938 114.752 91.2944 116.464 90.5291 116.866C89.0324 117.653 86.9386 115.577 85.3552 115.487C84.1382 115.418 82.9211 115.348 81.7041 115.279" stroke="black" stroke-linecap="round" stroke-linejoin="round"/>
<path d="M14.3755 96.109C14.7993 98.3377 14.2293 100.744 13.5064 102.876C13.1404 103.955 12.4652 105.001 13.9989 105.15C17.4497 105.485 20.9389 105.545 24.401 105.742" stroke="black" stroke-linecap="round" stroke-linejoin="round"/>
<ellipse cx="82.5" cy="57" rx="10.5" ry="12" fill="#F1ECEC"/>
</g>
<defs>
<filter id="filter0_d" x="1.56839" y="4.20898" width="122.978" height="135.304" filterUnits="userSpaceOnUse" color-interpolation-filters="sRGB">
<feFlood flood-opacity="0" result="BackgroundImageFix"/>
<feColorMatrix in="SourceAlpha" type="matrix" values="0 0 0 0 0 0 0 0 0 0 0 0 0 0 0 0 0 0 127 0"/>
<feOffset dx="7" dy="7"/>
<feGaussianBlur stdDeviation="2"/>
<feColorMatrix type="matrix" values="0 0 0 0 0 0 0 0 0 0 0 0 0 0 0 0 0 0 0.25 0"/>
<feBlend mode="normal" in2="BackgroundImageFix" result="effect1_dropShadow"/>
<feBlend mode="normal" in="SourceGraphic" in2="effect1_dropShadow" result="shape"/>
</filter>
</defs>
</svg>
